<?xml version="1.0" encoding="UTF-8"?>
<svg width="64" height="64" fill="#000000" version="1.1" viewBox="0 0 1.92 1.92" xmlns="http://www.w3.org/2000/svg">
 <path d="m1.5199 0.80004v-0.23994c0-0.088218-0.071742-0.15996-0.15996-0.15996h-0.23994c0-0.13229-0.10765-0.23994-0.23994-0.23994-0.13229 0-0.23994 0.10765-0.23994 0.23994h-0.23994c-0.088218 0-0.15996 0.071742-0.15996 0.15996v0.31992h0.07998a0.15996 0.15996 0 0 1 0 0.31992h-0.07998v0.31992c0 0.088218 0.071742 0.15996 0.15996 0.15996h0.31992v-0.07998a0.15996 0.15996 0 0 1 0.31992 0v0.07998h0.31992c0.088218 0 0.15996-0.071742 0.15996-0.15996v-0.23994c0.13229 0 0.23994-0.10765 0.23994-0.23994 0-0.13229-0.10765-0.23994-0.23994-0.23994z" fill="#0b2d3a" stroke-width=".07998"/>
</svg>
