<?xml version="1.0" encoding="UTF-8"?>
<svg width="18mm" height="18mm" clip-rule="evenodd" fill-rule="evenodd" image-rendering="optimizeQuality" shape-rendering="geometricPrecision" text-rendering="geometricPrecision" version="1.1" viewBox="0 0 1800 1800" xml:space="preserve" xmlns="http://www.w3.org/2000/svg">
 <defs>
  <style type="text/css">
   <![CDATA[
    .fil0 {fill:#676767}
    .fil1 {fill:#2B2A29;fill-opacity:0.721569}
   ]]>
  </style>
 </defs>
 <g transform="translate(220 220)" opacity=".5">
  
  
   <path class="fil0" d="m1058 331-69.7 69.7 108 260h98.6v-130c0-1.11 0.47-2.07 1.35-2.78 0.88-0.68 1.92-0.9 2.99-0.64l159 38.4c1.6 0.39 2.69 1.78 2.69 3.42v224c0 1.64-1.09 3.03-2.69 3.42l-159 38.4c-1.07 0.26-2.11 0.02-2.99-0.66-0.88-0.69-1.35-1.65-1.35-2.76v-130h-98.6l-53.7 130-53.8 130 69.7 69.7 92-92c0.79-0.79 1.79-1.13 2.9-1.01 1.12 0.13 2.01 0.71 2.59 1.65l85.4 140c0.88 1.41 0.66 3.16-0.51 4.34l-158 158c-1.16 1.15-2.91 1.36-4.32 0.51l-140-85.5c-0.94-0.58-1.52-1.48-1.67-2.59-0.13-1.09 0.24-2.11 1.03-2.91l92-92-69.7-69.7-280 116-280-116-69.7 69.7 92 92c0.79 0.8 1.14 1.82 1.01 2.91-0.13 1.11-0.71 2.01-1.67 2.59l-140 85.5c-1.41 0.85-3.16 0.64-4.34-0.51l-158-158c-1.15-1.18-1.36-2.93-0.51-4.34l85.4-140c0.58-0.94 1.48-1.52 2.59-1.65 1.11-0.12 2.11 0.22 2.91 1.01l92 92 69.7-69.7-53.8-130-53.7-130h-98.6v130c0 1.11-0.47 2.07-1.33 2.76-0.89 0.68-1.92 0.92-3.01 0.66l-159-38.4c-1.6-0.39-2.69-1.78-2.69-3.42v-224c0-1.64 1.09-3.03 2.69-3.42l159-38.4c1.09-0.26 2.12-0.04 3.01 0.64 0.86 0.71 1.33 1.67 1.33 2.78v130h98.6l108-260-69.7-69.7-92 92c-0.8 0.77-1.8 1.14-2.91 1.01s-2.01-0.71-2.59-1.67l-85.4-140c-0.85-1.41-0.66-3.16 0.51-4.34l158-158c1.16-1.18 2.93-1.37 4.32-0.52l140 85.4c0.94 0.58 1.54 1.48 1.67 2.59s-0.24 2.11-1.01 2.91l-92 92 69.7 69.7 280-116 280 116 69.7-69.7-92-92c-0.79-0.8-1.13-1.8-1.01-2.91 0.13-1.11 0.71-2.01 1.67-2.59l140-85.4c1.41-0.85 3.16-0.66 4.34 0.52l158 158c1.15 1.18 1.37 2.93 0.51 4.34l-85.4 140c-0.6 0.96-1.49 1.54-2.61 1.67-1.09 0.13-2.11-0.24-2.9-1.01z"/>
   <polygon class="fil1" points="921 440 971 560 1020 680 971 801 921 921 801 971 680 1020 560 971 440 921 390 801 340 680 390 560 440 440 560 390 680 340 801 390"/>
  
 </g>
</svg>
