<?xml version="1.0" encoding="UTF-8" standalone="no"?>
<!-- Creator: CorelDRAW Home & Student 2018 -->

<svg
   xml:space="preserve"
   width="18mm"
   height="18mm"
   version="1.1"
   style="clip-rule:evenodd;fill-rule:evenodd;image-rendering:optimizeQuality;shape-rendering:geometricPrecision;text-rendering:geometricPrecision"
   viewBox="0 0 1800 1800"
   id="svg13"
   xmlns="http://www.w3.org/2000/svg"
   xmlns:svg="http://www.w3.org/2000/svg">
 <defs
   id="defs4">
  <style
   type="text/css"
   id="style2">
   <![CDATA[
    .fil0 {fill:#02CCCC}
    .fil1 {fill:#2B2A29;fill-opacity:0.721569}
   ]]>
  </style>
 </defs>
 <g
   id="Capa_x0020_1"
   transform="translate(219.65997,219.60999)">
  <metadata
   id="CorelCorpID_0Corel-Layer" />
  <g
   id="_799316184">
   <path
   class="fil0"
   d="m 1058,331.11 -69.7,69.7 -0.02,0.02 53.75,129.74 62.05,149.82 -62.05,149.82 -53.75,129.76 69.72,69.7 91.98,-91.98 c 0.79,-0.79 1.8,-1.13 2.91,-1.01 1.11,0.13 2.01,0.71 2.59,1.65 l 85.44,139.79 c 0.87,1.41 0.66,3.16 -0.52,4.34 l -158.02,158.03 c -1.16,1.15 -2.91,1.36 -4.32,0.51 l -139.79,-85.46 c -0.94,-0.58 -1.52,-1.48 -1.67,-2.59 -0.13,-1.09 0.24,-2.11 1.03,-2.91 l 91.98,-91.98 -69.7,-69.72 -129.74,53.73 -149.82,62.07 L 530.53,1042.07 380.72,980.02 318.65,830.21 256.6,680.39 318.65,530.57 372.4,400.83 l -69.72,-69.72 -92.01,92 c -0.79,0.77 -1.79,1.14 -2.91,1.01 -1.11,-0.13 -2.01,-0.71 -2.58,-1.67 L 119.74,282.68 c -0.86,-1.41 -0.66,-3.16 0.51,-4.34 L 278.28,120.32 c 1.15,-1.18 2.93,-1.37 4.32,-0.52 l 139.79,85.44 c 0.94,0.58 1.54,1.48 1.66,2.59 0.13,1.11 -0.23,2.11 -1,2.91 l -92,92 69.72,69.7 129.76,-53.73 149.82,-62.07 149.82,62.07 129.74,53.73 69.7,-69.7 -91.98,-92 c -0.79,-0.8 -1.14,-1.8 -1.01,-2.91 0.13,-1.11 0.71,-2.01 1.67,-2.59 l 139.77,-85.44 c 1.41,-0.85 3.16,-0.66 4.34,0.52 l 158.02,158.02 c 1.16,1.18 1.37,2.93 0.52,4.34 l -85.44,139.77 c -0.6,0.96 -1.5,1.54 -2.61,1.67 -1.09,0.13 -2.12,-0.24 -2.91,-1.01 z"
   id="path7" />
   <polygon
   class="fil1"
   points="920.79,439.94 970.59,560.17 1020.39,680.39 970.59,800.62 920.79,920.84 800.56,970.64 680.34,1020.44 560.11,970.64 439.89,920.84 390.09,800.62 340.29,680.39 390.09,560.17 439.89,439.94 560.11,390.15 680.34,340.34 800.56,390.15 "
   id="polygon9" />
  </g>
 </g>
</svg>
