<?xml version="1.0" encoding="UTF-8" standalone="no"?>
<!-- Creator: CorelDRAW Home & Student 2018 -->

<svg
   xml:space="preserve"
   width="18mm"
   height="18mm"
   version="1.1"
   style="clip-rule:evenodd;fill-rule:evenodd;image-rendering:optimizeQuality;shape-rendering:geometricPrecision;text-rendering:geometricPrecision"
   viewBox="0 0 1800 1800"
   id="svg13"
   xmlns="http://www.w3.org/2000/svg"
   xmlns:svg="http://www.w3.org/2000/svg">
 <defs
   id="defs4">
  <style
   type="text/css"
   id="style2">
   <![CDATA[
    .fil0 {fill:#808080}
    .fil1 {fill:#2B2A29;fill-opacity:0.600000}
   ]]>
  </style>
 </defs>
 <g
   id="Capa_x0020_1"
   transform="translate(219.65002,219.61499)">
  <metadata
   id="CorelCorpID_0Corel-Layer" />
  <g
   id="_800471808">
   <polygon
   class="fil0"
   points="979.98,380.75 1042.03,530.57 1104.1,680.38 1042.03,830.2 979.98,980.02 830.16,1042.07 680.35,1104.13 530.53,1042.07 380.71,980.02 318.66,830.2 256.6,680.38 318.66,530.57 380.71,380.75 530.53,318.7 680.35,256.64 830.16,318.7 "
   id="polygon7" />
   <polygon
   class="fil1"
   points="920.8,439.93 970.59,560.16 1020.4,680.38 970.59,800.61 920.8,920.83 800.57,970.63 680.35,1020.43 560.12,970.63 439.9,920.83 390.1,800.61 340.3,680.38 390.1,560.16 439.9,439.93 560.12,390.14 680.35,340.33 800.57,390.14 "
   id="polygon9" />
  </g>
 </g>
</svg>
