<?xml version="1.0" encoding="UTF-8"?>
<svg width="18mm" height="18mm" clip-rule="evenodd" fill-rule="evenodd" image-rendering="optimizeQuality" shape-rendering="geometricPrecision" text-rendering="geometricPrecision" version="1.1" viewBox="0 0 1800 1800" xml:space="preserve" xmlns="http://www.w3.org/2000/svg">
 <defs>
  <style type="text/css">
   <![CDATA[
    .fil0 {fill:#676767}
    .fil1 {fill:#2B2A29;fill-opacity:0.721569}
   ]]>
  </style>
 </defs>
 <g transform="translate(220 220)" opacity=".5">
  
  
   <path class="fil0" d="m1030 1058-69.7-69.7-280 116-300-124-62.1-150-62-150 62-150 53.8-130-69.7-69.7-92 92c-0.79 0.77-1.79 1.14-2.91 1.01-1.11-0.13-2.01-0.71-2.58-1.67l-85.4-140c-0.86-1.41-0.66-3.16 0.51-4.34l158-158c1.15-1.18 2.93-1.37 4.32-0.52l140 85.4c0.94 0.58 1.54 1.48 1.66 2.59 0.13 1.11-0.23 2.11-1 2.91l-92 92 69.7 69.7 280-116 300 124 124 300-116 280 69.7 69.7 92-92c0.79-0.79 1.8-1.13 2.91-1.01 1.11 0.13 2.01 0.71 2.59 1.65l85.4 140c0.87 1.41 0.66 3.16-0.52 4.34l-158 158c-1.16 1.15-2.91 1.36-4.32 0.51l-140-85.5c-0.94-0.58-1.52-1.48-1.67-2.59-0.13-1.09 0.23-2.11 1.03-2.91z"/>
   <polygon class="fil1" points="921 440 971 560 1020 680 971 801 921 921 801 971 680 1020 560 971 440 921 390 801 340 680 390 560 440 440 560 390 680 340 801 390"/>
  
 </g>
</svg>
